<?xml version="1.0" encoding="UTF-8" standalone="no"?>
<!DOCTYPE svg PUBLIC "-//W3C//DTD SVG 1.1//EN" "http://www.w3.org/Graphics/SVG/1.1/DTD/svg11.dtd">
<svg width="100%" height="100%" viewBox="0 0 300 300" version="1.1" xmlns="http://www.w3.org/2000/svg" xmlns:xlink="http://www.w3.org/1999/xlink" xml:space="preserve" xmlns:serif="http://www.serif.com/" style="fill:#FDFDF9;fill-rule:evenodd;clip-rule:evenodd;">
    <g transform="matrix(1.71983,-0.305468,0.305468,1.71983,-121.569,-66.9887)">
        <g transform="matrix(144,0,0,144,43.906,198.969)">
            <path d="M0.224,-0.56C0.214,-0.521 0.203,-0.483 0.191,-0.448C0.179,-0.412 0.167,-0.379 0.154,-0.348C0.141,-0.317 0.128,-0.289 0.116,-0.264C0.103,-0.238 0.092,-0.216 0.082,-0.197C0.076,-0.15 0.076,-0.113 0.082,-0.084C0.089,-0.055 0.101,-0.041 0.12,-0.041C0.136,-0.041 0.151,-0.048 0.166,-0.063C0.181,-0.077 0.194,-0.094 0.206,-0.115C0.218,-0.136 0.228,-0.158 0.236,-0.182C0.244,-0.206 0.249,-0.227 0.251,-0.246C0.239,-0.249 0.228,-0.255 0.22,-0.263C0.211,-0.271 0.207,-0.282 0.207,-0.296C0.207,-0.305 0.21,-0.314 0.215,-0.322C0.22,-0.33 0.226,-0.337 0.233,-0.343C0.241,-0.349 0.248,-0.353 0.257,-0.356C0.265,-0.36 0.273,-0.361 0.28,-0.361C0.291,-0.361 0.301,-0.354 0.309,-0.34C0.316,-0.326 0.322,-0.309 0.324,-0.287C0.35,-0.288 0.378,-0.292 0.406,-0.299C0.435,-0.306 0.462,-0.315 0.487,-0.326C0.494,-0.329 0.5,-0.33 0.505,-0.329C0.509,-0.328 0.513,-0.325 0.514,-0.321C0.516,-0.317 0.516,-0.313 0.514,-0.308C0.512,-0.303 0.508,-0.299 0.502,-0.297C0.487,-0.288 0.472,-0.281 0.456,-0.274C0.44,-0.267 0.424,-0.261 0.408,-0.257C0.393,-0.252 0.378,-0.249 0.363,-0.246C0.349,-0.243 0.336,-0.242 0.324,-0.242C0.322,-0.216 0.313,-0.188 0.3,-0.158C0.286,-0.127 0.27,-0.099 0.25,-0.074C0.23,-0.048 0.209,-0.027 0.185,-0.01C0.161,0.007 0.138,0.016 0.115,0.016C0.108,0.016 0.099,0.015 0.087,0.013C0.075,0.011 0.064,0.004 0.053,-0.008C0.042,-0.02 0.032,-0.038 0.024,-0.064C0.017,-0.09 0.013,-0.126 0.015,-0.174C0.015,-0.206 0.019,-0.24 0.025,-0.275C0.032,-0.311 0.04,-0.347 0.049,-0.383C0.058,-0.419 0.068,-0.453 0.08,-0.487C0.091,-0.52 0.102,-0.551 0.112,-0.578C0.123,-0.605 0.132,-0.627 0.141,-0.646C0.15,-0.664 0.157,-0.675 0.161,-0.681C0.167,-0.688 0.174,-0.693 0.182,-0.697C0.189,-0.7 0.197,-0.703 0.205,-0.705C0.212,-0.706 0.219,-0.707 0.226,-0.706C0.232,-0.705 0.237,-0.704 0.239,-0.703C0.243,-0.701 0.244,-0.686 0.243,-0.66C0.241,-0.634 0.235,-0.601 0.224,-0.56Z" style="fill-rule:nonzero;"/>
        </g>
        <g transform="matrix(144,0,0,144,103.672,198.969)">
            <path d="M0.442,-0.203C0.423,-0.174 0.401,-0.147 0.376,-0.12C0.351,-0.093 0.325,-0.069 0.297,-0.047C0.27,-0.026 0.241,-0.009 0.212,0.004C0.183,0.017 0.155,0.023 0.128,0.023C0.114,0.023 0.098,0.02 0.082,0.013C0.065,0.006 0.05,-0.004 0.036,-0.019C0.022,-0.033 0.012,-0.051 0.003,-0.074C-0.005,-0.097 -0.007,-0.125 -0.004,-0.157C-0.001,-0.184 0.007,-0.212 0.021,-0.242C0.035,-0.271 0.052,-0.299 0.073,-0.323C0.093,-0.348 0.116,-0.368 0.142,-0.385C0.168,-0.401 0.194,-0.409 0.22,-0.409C0.244,-0.409 0.262,-0.403 0.273,-0.391C0.285,-0.378 0.289,-0.363 0.288,-0.345C0.286,-0.325 0.28,-0.306 0.271,-0.289C0.262,-0.272 0.25,-0.257 0.237,-0.243C0.224,-0.229 0.21,-0.217 0.196,-0.206C0.181,-0.195 0.167,-0.185 0.154,-0.176C0.14,-0.166 0.126,-0.157 0.113,-0.148C0.1,-0.139 0.089,-0.131 0.079,-0.124C0.08,-0.108 0.083,-0.094 0.088,-0.083C0.093,-0.072 0.1,-0.063 0.107,-0.056C0.115,-0.049 0.124,-0.044 0.134,-0.042C0.144,-0.039 0.155,-0.037 0.165,-0.037C0.187,-0.037 0.21,-0.044 0.234,-0.058C0.258,-0.072 0.282,-0.089 0.305,-0.109C0.328,-0.129 0.35,-0.149 0.37,-0.171C0.389,-0.192 0.406,-0.211 0.419,-0.227C0.424,-0.232 0.428,-0.235 0.433,-0.236C0.438,-0.237 0.442,-0.236 0.445,-0.234C0.448,-0.232 0.449,-0.228 0.449,-0.222C0.449,-0.217 0.447,-0.21 0.442,-0.203ZM0.192,-0.354C0.185,-0.354 0.175,-0.35 0.165,-0.342C0.154,-0.334 0.143,-0.323 0.133,-0.308C0.122,-0.293 0.113,-0.276 0.104,-0.254C0.094,-0.233 0.088,-0.209 0.083,-0.182C0.091,-0.188 0.099,-0.194 0.108,-0.2C0.118,-0.206 0.127,-0.213 0.136,-0.22C0.164,-0.241 0.183,-0.26 0.194,-0.276C0.205,-0.293 0.212,-0.307 0.213,-0.318C0.214,-0.331 0.213,-0.34 0.209,-0.345C0.205,-0.351 0.2,-0.354 0.192,-0.354Z" style="fill-rule:nonzero;"/>
        </g>
        <g transform="matrix(144,0,0,144,157.25,198.969)">
            <path d="M-0.015,-0.016C0.014,-0.136 0.037,-0.233 0.054,-0.306C0.071,-0.379 0.085,-0.434 0.094,-0.473C0.104,-0.518 0.111,-0.55 0.115,-0.567C0.117,-0.58 0.119,-0.592 0.12,-0.604C0.121,-0.614 0.122,-0.625 0.122,-0.636C0.122,-0.647 0.121,-0.657 0.119,-0.666C0.124,-0.669 0.13,-0.672 0.136,-0.674C0.142,-0.676 0.148,-0.677 0.154,-0.679C0.161,-0.681 0.169,-0.682 0.176,-0.684C0.183,-0.685 0.189,-0.686 0.195,-0.686C0.201,-0.686 0.205,-0.685 0.21,-0.684C0.215,-0.683 0.217,-0.681 0.219,-0.678C0.223,-0.674 0.224,-0.668 0.224,-0.658C0.224,-0.648 0.223,-0.638 0.222,-0.628C0.219,-0.616 0.216,-0.602 0.213,-0.588C0.205,-0.56 0.194,-0.52 0.181,-0.467C0.169,-0.422 0.153,-0.361 0.133,-0.283C0.113,-0.206 0.089,-0.108 0.059,0.01C0.055,0.013 0.051,0.015 0.047,0.017C0.042,0.018 0.038,0.019 0.034,0.019C0.03,0.019 0.025,0.018 0.02,0.018C0.015,0.016 0.01,0.014 0.006,0.012C0.002,0.009 -0.002,0.006 -0.006,0.001C-0.01,-0.003 -0.013,-0.008 -0.015,-0.016Z" style="fill-rule:nonzero;"/>
        </g>
        <g transform="matrix(144,0,0,144,188.75,198.969)">
            <path d="M-0.015,-0.016C0.014,-0.136 0.037,-0.233 0.054,-0.306C0.071,-0.379 0.085,-0.434 0.094,-0.473C0.104,-0.518 0.111,-0.55 0.115,-0.567C0.117,-0.58 0.119,-0.592 0.12,-0.604C0.121,-0.614 0.122,-0.625 0.122,-0.636C0.122,-0.647 0.121,-0.657 0.119,-0.666C0.124,-0.669 0.13,-0.672 0.136,-0.674C0.142,-0.676 0.148,-0.677 0.154,-0.679C0.161,-0.681 0.169,-0.682 0.176,-0.684C0.183,-0.685 0.189,-0.686 0.195,-0.686C0.201,-0.686 0.205,-0.685 0.21,-0.684C0.215,-0.683 0.217,-0.681 0.219,-0.678C0.223,-0.674 0.224,-0.668 0.224,-0.658C0.224,-0.648 0.223,-0.638 0.222,-0.628C0.219,-0.616 0.216,-0.602 0.213,-0.588C0.205,-0.56 0.194,-0.52 0.181,-0.467C0.169,-0.422 0.153,-0.361 0.133,-0.283C0.113,-0.206 0.089,-0.108 0.059,0.01C0.055,0.013 0.051,0.015 0.047,0.017C0.042,0.018 0.038,0.019 0.034,0.019C0.03,0.019 0.025,0.018 0.02,0.018C0.015,0.016 0.01,0.014 0.006,0.012C0.002,0.009 -0.002,0.006 -0.006,0.001C-0.01,-0.003 -0.013,-0.008 -0.015,-0.016Z" style="fill-rule:nonzero;"/>
        </g>
    </g>
</svg>
